<svg xmlns:xlink="http://www.w3.org/1999/xlink" xmlns:lucid="lucid" xmlns="http://www.w3.org/2000/svg" width="1804"
     height="914">
    <g transform="translate(530 -82)" lucid:page-tab-id="uTgaPVyErH94">
        <path d="M-1806.87 0h3677.74v2581.67h-3677.74z" fill="#fff"/>
        <path d="M580 146a6 6 0 0 1 6-6h628a6 6 0 0 1 6 6v348a6 6 0 0 1-6 6H586a6 6 0 0 1-6-6z" stroke="#5e5e5e"
              stroke-width="3" fill-opacity="0"/>
        <use xlink:href="#a"
             transform="matrix(1,0,0,1,588,148.00000000000003) translate(263.91358024691357 17.77777777777778)"/>
        <use xlink:href="#b"
             transform="matrix(1,0,0,1,588,148.00000000000003) translate(335.39506172839504 17.77777777777778)"/>
        <path d="M580 586a6 6 0 0 1 6-6h628a6 6 0 0 1 6 6v348a6 6 0 0 1-6 6H586a6 6 0 0 1-6-6z" stroke="#5e5e5e"
              stroke-width="3" fill-opacity="0"/>
        <use xlink:href="#a" transform="matrix(1,0,0,1,588,588) translate(262.0925925925926 17.77777777777778)"/>
        <use xlink:href="#c" transform="matrix(1,0,0,1,588,588) translate(333.5740740740741 17.77777777777778)"/>
        <path d="M-180 216a6 6 0 0 1 6-6h528a6 6 0 0 1 6 6v688a6 6 0 0 1-6 6h-528a6 6 0 0 1-6-6z" stroke="#5e5e5e"
              stroke-width="3" fill-opacity="0"/>
        <use xlink:href="#d"
             transform="matrix(1,0,0,1,-172.00000000000006,218) translate(228.69753086419752 17.77777777777778)"/>
        <path d="M-329.92 500h132.87v57.33h-132.87z" fill="none"/>
        <use xlink:href="#e"
             transform="matrix(1,0,0,1,-329.91786679683526,500) translate(31.796296296296298 34.33333333333333)"/>
        <path d="M820 206a6 6 0 0 1 6-6h148a6 6 0 0 1 6 6v108a6 6 0 0 1-6 6H826a6 6 0 0 1-6-6z" stroke="#5e5e5e"
              stroke-width="3" fill="#fff"/>
        <use xlink:href="#f" transform="matrix(1,0,0,1,832,212) translate(23.586419753086425 53.77777777777778)"/>
        <use xlink:href="#b" transform="matrix(1,0,0,1,832,212) translate(87.72222222222223 53.77777777777778)"/>
        <path d="M1040 206a6 6 0 0 1 6-6h148a6 6 0 0 1 6 6v108a6 6 0 0 1-6 6h-148a6 6 0 0 1-6-6z" stroke="#5e5e5e"
              stroke-width="3" fill="#fff"/>
        <use xlink:href="#f" transform="matrix(1,0,0,1,1052,212) translate(23.586419753086425 53.77777777777778)"/>
        <use xlink:href="#g" transform="matrix(1,0,0,1,1052,212) translate(87.72222222222223 53.77777777777778)"/>
        <path d="M820 366a6 6 0 0 1 6-6h148a6 6 0 0 1 6 6v108a6 6 0 0 1-6 6H826a6 6 0 0 1-6-6z" stroke="#5e5e5e"
              stroke-width="3" fill="#fff"/>
        <use xlink:href="#f" transform="matrix(1,0,0,1,832,372) translate(23.586419753086425 53.77777777777778)"/>
        <use xlink:href="#h" transform="matrix(1,0,0,1,832,372) translate(87.72222222222223 53.77777777777778)"/>
        <path d="M1040 366a6 6 0 0 1 6-6h148a6 6 0 0 1 6 6v108a6 6 0 0 1-6 6h-148a6 6 0 0 1-6-6z" stroke="#5e5e5e"
              stroke-width="3" fill="#fff"/>
        <use xlink:href="#f" transform="matrix(1,0,0,1,1052,372) translate(23.586419753086425 53.77777777777778)"/>
        <use xlink:href="#i" transform="matrix(1,0,0,1,1052,372) translate(87.72222222222223 53.77777777777778)"/>
        <path d="M-2.16 525.5H96.5" stroke="#5e5e5e" stroke-width="2" fill="none"/>
        <path d="M-2.14 526.5h-.8l-.45-2h1.26z" stroke="#5e5e5e" stroke-width=".05" fill="#5e5e5e"/>
        <path d="M111.76 525.5l-14.26 4.64v-9.28z" stroke="#5e5e5e" stroke-width="2" fill="#5e5e5e"/>
        <path d="M-2.16 525.5H54a6 6 0 0 1 6 6v189.4a6 6 0 0 0 6 6h31.54" stroke="#5e5e5e" stroke-width="2"
              fill="none"/>
        <path d="M-2.14 526.5h-.8l-.45-2h1.26z" stroke="#5e5e5e" stroke-width=".05" fill="#5e5e5e"/>
        <path d="M112.8 726.9l-14.26 4.63v-9.27z" stroke="#5e5e5e" stroke-width="2" fill="#5e5e5e"/>
        <path d="M-2.16 525.5H54a6 6 0 0 0 6-6V336a6 6 0 0 1 6-6h35.02" stroke="#5e5e5e" stroke-width="2" fill="none"/>
        <path d="M-2.14 526.5h-.8l-.45-2h1.26z" stroke="#5e5e5e" stroke-width=".05" fill="#5e5e5e"/>
        <path d="M116.3 330L102 334.64v-9.28z" stroke="#5e5e5e" stroke-width="2" fill="#5e5e5e"/>
        <path d="M577.54 320H476a6 6 0 0 0-6 6v228a6 6 0 0 1-6 6h-84.04" stroke="#5e5e5e" stroke-width="2" fill="none"/>
        <path d="M578.54 321h-1.03v-2h1.04z" stroke="#5e5e5e" stroke-width=".05" fill="#5e5e5e"/>
        <path d="M364.7 560l14.26-4.64v9.28z" stroke="#5e5e5e" stroke-width="2" fill="#5e5e5e"/>
        <path d="M577.54 760H476a6 6 0 0 1-6-6V566a6 6 0 0 0-6-6h-84.04" stroke="#5e5e5e" stroke-width="2" fill="none"/>
        <path d="M578.54 761h-1.03v-2h1.04z" stroke="#5e5e5e" stroke-width=".05" fill="#5e5e5e"/>
        <path d="M364.7 560l14.26-4.64v9.28z" stroke="#5e5e5e" stroke-width="2" fill="#5e5e5e"/>
        <path d="M-346.24 560h146.28" stroke="#5e5e5e" stroke-width="2" fill="none"/>
        <path d="M-346.2 561h-1.04v-2h1.03z" stroke="#5e5e5e" stroke-width=".05" fill="#5e5e5e"/>
        <path d="M-184.7 560l-14.26 4.64v-9.28z" stroke="#5e5e5e" stroke-width="2" fill="#5e5e5e"/>
        <path d="M673.28 295.58c-7.08 3.7-10.2 12.64-6.48 19.74 3.72 7.1 12.6 9.82 19.68 6.4 7.2-3.68 10.2-12.62 6.48-19.72-3.72-7.4-12.6-10.1-19.68-6.42zm9.24 17.9c-2.76 1.16-5.88.28-7.08-2.54-1.2-2.72-.36-5.73 2.16-7.1 2.76-1.16 5.76-.3 7.32 2.53 1.32 2.43 0 5.45-2.4 7.1z"
              stroke="#000" stroke-opacity="0" fill="#0078d7"/>
        <path d="M734.84 260H625.28c-2.76 0-5.28 2.72-5.28 6.12v84.98c0 3.3 2.4 6.12 5.28 6.12h109.56c2.76 0 5.16-2.82 5.16-6.12v-84.98c0-3.3-2.4-6.12-5.16-6.12zm-25.32 59.7l-5.52 8.94-7.68-3.1c-1.2 1.15-2.76 2.42-4.32 3.4l.84 8.64-10.08 2.43-3.12-7.67c-1.8 0-3.72-.4-5.52-.68l-5.28 6.8-8.88-5.53 3-7.4c-1.2-1.26-2.4-2.72-3.36-4.66l-8.28.97-2.4-10.2 7.32-3.02c0-1.84.36-3.78.96-5.63l-6.84-5.25 5.52-8.85 7.68 3.02c1.32-1.18 2.52-2.15 3.72-3.03l-1.2-8.65 10.2-2.72 3.36 7.68c2.16 0 4.08.3 5.88.88l5.52-6.8 8.88 5.63-3.36 7.96c1.2 1.17 2.16 2.72 3.12 4.28l8.88-.88 2.4 10.1-8.04 3.42c0 1.84-.24 3.4-.6 5.25l7.2 4.66z"
              stroke="#000" stroke-opacity="0" fill="#0078d7"/>
        <use xlink:href="#j" transform="matrix(1,0,0,1,590,366.22033898305085) translate(61.25 14.4)"/>
        <path d="M659.4 772.58c6.36-3.3 9.12-11.28 5.76-17.56-3.24-6.3-11.16-8.78-17.52-5.7-6.24 3.3-9 11.18-5.64 17.47 3.24 6.57 11.16 8.97 17.4 5.78zM651.24 757c2.52-1.08 5.16-.3 6.6 2.1 1.08 2.5.24 5.2-2.16 6.3-2.52 1.1-5.28.3-6.36-2.1-1.32-2.2-.24-5.3 1.92-6.3z"
              stroke="#000" stroke-opacity="0" fill="#0078d7"/>
        <path d="M714.48 731.77h-.72c0-3.6-2.52-6.28-5.52-6.28h-1.56c0-3.1-2.16-5.5-4.68-5.5h-97.32c-2.4 0-4.68 2.4-4.68 5.5v75.4c0 3 2.16 5.5 4.68 5.5h.84v.8c0 3.6 2.4 6.28 5.4 6.28h.84c0 3.6 2.4 6.3 5.4 6.3h97.32c3 0 5.52-2.7 5.52-6.3v-75.42c.24-3.6-2.52-6.3-5.52-6.3zm-87.36 19.36l4.92-7.88 6.84 2.7c1.08-.8 2.16-1.9 3.24-2.4l-1.08-7.7 9-2.48 3 6.88c1.68 0 3.6.2 5.28.5l4.92-5.98 7.92 4.88-3 7.2c1.08.98 1.92 2.08 2.64 3.48l7.92-.8 2.16 9.08-7.08 3c0 1.7-.24 3-.6 4.7l6.12 4.88-5.04 7.98-6.84-2.8c-1.08 1.1-2.4 2.2-3.72 3l.72 7.68-9 2.2-2.76-6.8c-1.56 0-3.24-.3-4.92-.6l-4.68 6-7.8-4.9 2.64-6.57c-1.08-1.1-2.16-2.4-3-4.1l-7.32.8-2.16-8.97 6.48-2.8c0-1.6.24-3.3.84-4.9l-5.64-5.27zm-14.52 60.75h-1.68c-2.16 0-3.72-2-3.72-4.68v-.8H702c2.4 0 4.68-2.5 4.68-5.5v-73.83h1.56c2.16 0 3.84 2 3.84 4.7V807.2c0 2.4-1.68 4.68-3.84 4.68H612.6zm105.72 1.6c0 2.5-1.56 4.7-3.72 4.7h-97.32c-2.16 0-3.84-2-3.84-4.7h94.8c3.12 0 5.52-2.7 5.52-6.28v-73.83h.84c2.16 0 3.72 2.2 3.72 4.7v75.4z"
              stroke="#000" stroke-opacity="0" fill="#0078d7"/>
        <use xlink:href="#k" transform="matrix(1,0,0,1,570,828.7658079625293) translate(56.75 14.4)"/>
        <path d="M-60.34 468.67c-1.14.1-2.05.34-2.96.8l-39.44 19.43c-2.16 1.02-3.64 2.84-4.1 5.23l-9.77 43.76c-.47 2.04-.12 4.08 1 5.9.13.23.24.34.47.57l27.28 35c1.48 1.94 3.52 2.97 5.9 2.97h43.9c2.38 0 4.42-1.03 5.9-2.96l27.28-35c1.48-1.94 2.05-4.22 1.48-6.6l-9.77-43.65c-.45-2.4-1.93-4.2-4.1-5.23l-39.43-19.44c-1.25-.57-2.4-.9-3.64-.8z"
              stroke="#000" stroke-opacity="0" stroke-width="0" fill="#326ce5"/>
        <path d="M-60.36 465.5c-1.2.12-2.16.36-3.12.84l-41.64 20.52c-2.28 1.08-3.84 3-4.32 5.52l-10.32 46.2c-.48 2.16-.12 4.32 1.08 6.24.12.24.24.36.48.6l28.8 36.96c1.56 2.04 3.72 3.12 6.24 3.12h46.32c2.52 0 4.68-1.08 6.24-3.12l28.8-36.96c1.56-2.04 2.16-4.44 1.56-6.84l-10.32-46.2c-.48-2.52-2.04-4.44-4.32-5.52l-41.64-20.52c-1.32-.6-2.52-.96-3.84-.84zm0 3.12c1.32 0 2.4.24 3.6.84l39.6 19.44c2.04 1.08 3.48 2.88 4.08 5.28l9.72 43.68c.48 2.4 0 4.56-1.44 6.48l-27.36 35.04c-1.44 1.92-3.48 3-5.88 3h-43.92c-2.4 0-4.44-1.08-5.88-3l-27.36-35.04c-.12-.12-.24-.36-.36-.6-1.2-1.8-1.56-3.72-1.08-5.88l9.72-43.68c.6-2.4 1.92-4.2 4.08-5.28l39.6-19.44c.96-.48 1.8-.72 2.88-.84z"
              stroke="#000" stroke-opacity="0" stroke-width="0" fill="#fff"/>
        <path d="M-60.13 491.8c-.94 0-26.55 12.94-26.88 13.62-.8 1.62-6.68 29.38-6.35 30 .2.32 4.4 5.85 9.34 12.2l9 11.58h29.54l9.4-12.13 9.4-12.07-3.26-14.9c-1.8-8.15-3.47-15.02-3.6-15.15-.47-.48-26.08-13.15-26.6-13.15zm1.6 13.62c1.2.07 1.33 1.95 4 2.15 3.47.27 3.13-3.03 5.73-.74 2.67 2.36-.6 2.5.27 6 .8 3.5 3.8 2.1 2.47 5.4-1.33 3.36-2.47.2-5.47 2.08-2.93 1.9-.73 4.4-4.2 4.12-3.47-.27-.94-2.36-3.6-4.7-2.67-2.3-4.27.6-5.07-2.9-.87-3.45 1.87-1.63 3.2-4.93 1.33-3.38-1.87-4.06 1.07-5.94.4-.2.73-.34 1-.47.2-.08.4-.08.6-.08zm3.47 3.9c-.54 0-1 .07-1.54.2-2.6.82-4.13 3.72-3.33 6.48.8 2.76 3.6 4.3 6.27 3.5 2.66-.87 4.2-3.77 3.4-6.47-.67-2.22-2.6-3.7-4.8-3.7zm-19.95 8.9c.26 0 .6.07 1 .2 3.2 1.02-.07 2.77 2.2 5.26 2.33 2.56 4.2-.67 4.93 2.7.8 3.3-2.33 1.28-3.27 4.58-1 3.3 2.67 3.37.2 5.73-2.4 2.35-2.26-1.43-5.53-.62-3.27.74-1.47 4.05-4.67 3.03-3.2-1 .07-2.68-2.27-5.24-2.28-2.5-4.14.67-4.88-2.63-.8-3.37 2.27-1.35 3.27-4.65 1-3.3-2.68-3.37-.2-5.73 2.4-2.36 2.26 1.42 5.53.67 2.8-.67 1.86-3.3 3.66-3.3zm23.74 3.64c.33 0 .66.07 1.13.27 3.67 1.48-1.13 3.7 1.67 6.54 2.87 2.83 4.87-2.3 6.47 1.4 1.6 3.8-3.4 1.83-3.33 5.88.14 4.1 5 1.95 3.6 5.73-1.46 3.77-3.66-1.22-6.4 1.75-2.73 2.96 2.2 4.98-1.4 6.6-3.6 1.7-1.73-3.5-5.67-3.37-3.93.07-1.87 5.12-5.53 3.64-3.67-1.48 1.13-3.7-1.67-6.54-2.87-2.83-4.87 2.3-6.47-1.48-1.6-3.7 3.4-1.75 3.33-5.86-.13-4.05-5-1.9-3.6-5.66 1.47-3.84 3.67 1.2 6.4-1.75 2.74-2.96-2.2-4.98 1.4-6.6 3.6-1.68 1.74 3.44 5.68 3.37 3.46-.07 2.26-3.98 4.4-3.9zm-25.8 1.75c-2.8 0-5.08 2.3-5.08 5.2 0 2.83 2.27 5.2 5.07 5.2 2.8 0 5-2.37 5-5.2 0-2.9-2.2-5.2-5-5.2zm21.6 4.93c-4.07.07-7.4 3.44-7.4 7.7 0 4.23 3.33 7.6 7.4 7.6 4.13 0 7.46-3.37 7.46-7.6 0-4.26-3.33-7.7-7.46-7.7z"
              stroke="#eee" stroke-width="0" fill="#fff"/>
        <use xlink:href="#l" transform="matrix(1,0,0,1,-150,594.5) translate(65.98765432098766 17.77777777777778)"/>
        <path d="M117.28 463.28h124.44v124.44H117.28z" stroke="#fff" stroke-opacity="0" fill="#4285f4"/>
        <path d="M239.5 465.5v120H119.5v-120H239.5m4.5-4.5H115v129h129V461z" stroke="#fff" stroke-opacity="0"
              fill="#fff"/>
        <path d="M180.25 486.8c-15.2 0-26.75 4.9-26.75 11.36v56.1c0 6.56 11.56 11.46 26.75 11.46 15.2 0 26.75-4.9 26.75-11.37v-56.1c0-6.56-11.5-11.45-26.75-11.45zm0 3c13.96 0 23.7 4.42 23.7 8.36 0 3.95-9.74 8.37-23.7 8.37-13.96 0-23.7-4.34-23.7-8.3 0-3.93 9.74-8.43 23.7-8.43zm0 72.92c-13.96 0-23.7-4.42-23.7-8.37v-11.83c4.4 3.63 13.1 6 23.7 6 10.65 0 19.3-2.37 23.7-6v11.83c0 3.95-9.74 8.37-23.7 8.37zm0-17.28c-13.96 0-23.7-4.34-23.7-8.3v-13.88c4.4 3.55 13.1 5.92 23.7 5.92 10.65 0 19.3-2.37 23.7-5.92v13.9c0 3.94-9.74 8.28-23.7 8.28zm0-19.34c-13.96 0-23.7-4.34-23.7-8.3v-14.27c4.4 3.63 13.1 6 23.7 6 10.65 0 19.3-2.37 23.7-6v14.2c0 3.95-9.74 8.37-23.7 8.37z"
              stroke="#fff" stroke-opacity="0" fill="#fff"/>
        <use xlink:href="#m" transform="matrix(1,0,0,1,85,599) translate(14.870370370370381 17.77777777777778)"/>
        <use xlink:href="#n" transform="matrix(1,0,0,1,85,599) translate(82.77160493827161 17.77777777777778)"/>
        <use xlink:href="#o" transform="matrix(1,0,0,1,85,599) translate(113.6358024691358 17.77777777777778)"/>
        <path d="M236.98 318.22H122.04c-1.3 0-2.5-1.13-2.5-2.55V303.7h5.14v9.42h109.66v-21.25h-76.42v-5.1h79.06c1.32 0 2.52 1.13 2.52 2.55v26.35c0 1.42-1.2 2.55-2.52 2.55zM236.95 354.1h-5.1V349h2.54v-2.55h5.1v5.1c0 1.42-1.14 2.56-2.55 2.56zM227.1 354.1h-9.52V349h9.5zm-14.28 0h-9.52V349h9.52zm-14.27 0h-9.52V349h9.52zm-14.28 0h-9.52V349h9.52zm-14.27 0h-9.52V349H170zm-14.28 0h-9.42V349h9.52zm-14.27 0h-9.52V349h9.52zM127.18 354.1h-5.1c-1.4 0-2.55-1.13-2.55-2.54v-5.1h5.1V349h2.55zM119.53 334.35h5.1v8.07h-5.1v-8.07zM124.63 330.34h-5.1v-5.1c0-1.4 1.14-2.55 2.55-2.55h5.1v5.1h-2.55zM227.1 327.8h-9.52v-5.1h9.5zm-14.28 0h-9.52v-5.1h9.52zm-14.27 0h-9.52v-5.1h9.52zm-14.28 0h-9.52v-5.1h9.52zm-14.27 0h-9.52v-5.1H170zm-14.28 0h-9.42v-5.1h9.52zm-14.27 0h-9.52v-5.1h9.52zM239.5 330.34h-5.1v-2.55h-2.56v-5.1h5.1c1.42 0 2.56 1.13 2.56 2.54zM234.4 334.35h5.1v8.07h-5.1v-8.07zM236.95 390h-5.1v-5.1h2.54v-2.56h5.1v5.1c0 1.42-1.14 2.56-2.55 2.56zM227.1 390h-9.52v-5.1h9.5zm-14.28 0h-9.52v-5.1h9.52zm-14.27 0h-9.52v-5.1h9.52zm-14.28 0h-9.52v-5.1h9.52zM170 390h-9.52v-5.1H170zm-14.28 0h-9.42v-5.1h9.52zm-14.27 0h-9.52v-5.1h9.52zM127.18 390h-5.1c-1.4 0-2.55-1.14-2.55-2.55v-5.1h5.1v2.54h2.55zM119.53 370.27h5.1v8.06h-5.1v-8.06zM124.63 366.23h-5.1v-5.1c0-1.4 1.14-2.55 2.55-2.55h5.1v5.1h-2.55zM227.1 363.68h-9.52v-5.1h9.5zm-14.28 0h-9.52v-5.1h9.52zm-14.27 0h-9.52v-5.1h9.52zm-14.28 0h-9.52v-5.1h9.52zm-14.27 0h-9.52v-5.1H170zm-14.28 0h-9.42v-5.1h9.52zm-14.27 0h-9.52v-5.1h9.52zM239.5 366.23h-5.1v-2.55h-2.56v-5.1h5.1c1.42 0 2.56 1.14 2.56 2.55zM234.4 370.27h5.1v8.06h-5.1v-8.06z"
              stroke="#fff" stroke-opacity="0" fill="#3b48cc"/>
        <path d="M174.4 311.1v-7.47H166v7.47h-2.42v-16.57H166v7.12h8.4v-7.12h2.43v16.57zM184.4 311.1v-14.58h-5.3v-2h13.02v2h-5.28v14.58zM198.86 311.1v-14.58h-5.3v-2h13v2h-5.27v14.58zM211.32 304.68v6.42h-2.38v-16.56h6c1.48-.08 2.76.38 3.86 1.37 1.07 1 1.6 2.25 1.55 3.7.07 1.45-.42 2.7-1.45 3.7-1.1 1-2.37 1.47-3.86 1.38zm0-1.94h3.42c.87.07 1.64-.2 2.28-.78.57-.67.82-1.45.76-2.35.04-.25.05-.5 0-.75-.18-1.5-1.54-2.57-3.04-2.37h-3.42zM136.42 303.85c-9.34 0-16.92-7.58-16.92-16.93 0-9.34 7.58-16.92 16.92-16.92 9.35 0 16.93 7.58 16.93 16.92v.04c0 9.34-7.58 16.9-16.93 16.9zm0-28.7c-6.53 0-11.8 5.28-11.8 11.8 0 6.54 5.27 11.82 11.8 11.82 6.54 0 11.82-5.28 11.82-11.8v-.08c0-6.5-5.32-11.8-11.82-11.76z"
              stroke="#fff" stroke-opacity="0" fill="#3b48cc"/>
        <path d="M122.2 288.67h114.75V390H122.2V288.67z" stroke="#fff" stroke-opacity="0" stroke-width=".38" fill="#fff"
              fill-opacity="0"/>
        <use xlink:href="#p" transform="matrix(1,0,0,1,89.5,399) translate(7.870370370370381 17.77777777777778)"/>
        <use xlink:href="#q" transform="matrix(1,0,0,1,89.5,399) translate(71.45061728395063 17.77777777777778)"/>
        <use xlink:href="#r" transform="matrix(1,0,0,1,89.5,399) translate(136.32716049382717 17.77777777777778)"/>
        <path d="M242.46 721.1l-26.36-45.3c-2.05-3.64-5.64-5.7-9.86-5.8h-52.48c-4.22.1-7.8 2.16-9.86 5.8l-26.36 45.18c-2.05 3.53-2.05 7.62 0 11.26l26.36 45.52c2.05 3.75 5.5 5.92 9.86 6.03h52.48c4.22-.12 7.8-2.3 9.86-6.04l26.36-45.18c2.05-3.75 2.05-7.85 0-11.5z"
              stroke="#000" stroke-opacity="0" fill="#4285f4"/>
        <path d="M201.5 713.58l-36.17 3.3-7 6.94 6 5.9-5.93 10.3 44.15 43.74h3.73c4.27-.14 7.77-2.32 9.82-5.97l18.35-31.6z"
              stroke="#000" stroke-opacity="0" fill-opacity=".07"/>
        <path d="M200.66 713.3h-41.42c-.66 0-1.23.53-1.23 1.2v8.47c0 .67.54 1.2 1.24 1.2h41.42c.7 0 1.23-.53 1.23-1.2v-8.48c0-.67-.54-1.2-1.24-1.2m-6.4 7.9c-1.37 0-2.46-1.1-2.46-2.44 0-1.35 1.1-2.45 2.45-2.45 1.4 0 2.5 1.1 2.5 2.46 0 1.35-1.1 2.45-2.5 2.45M200.66 729.6H159.2c-.66 0-1.2.57-1.2 1.23v8.48c0 .68.54 1.2 1.24 1.2h41.42c.7 0 1.23-.52 1.23-1.2v-8.5c0-.67-.54-1.2-1.24-1.2m-6.4 7.9c-1.37 0-2.46-1.1-2.46-2.45s1.1-2.46 2.45-2.46c1.4 0 2.5 1.1 2.5 2.45 0 1.36-1.1 2.46-2.5 2.46"
              stroke="#000" stroke-opacity="0" fill="#fff"/>
        <use xlink:href="#s" transform="matrix(1,0,0,1,116,788.79) translate(25.141975308641975 17.77777777777778)"/>
        <use xlink:href="#t" transform="matrix(1,0,0,1,116,788.79) translate(39.925925925925924 44.44444444444444)"/>
        <path d="M-349.76 526.55h-91.4c-1.6 0-3.32 1.34-3.32 3.2v58.08c0 1.6 1.33 4.15 3.32 4.15h38.98v6.15c0 2-2.92 5.62-5.2 5.62h-6.5c-7.2 0-12.38 1.88-12.38 5.9 0 1.86-.26 1.86 6.8 1.86h3.58c5.6 0 6.52-3.2 12.1-3.2h13.97c5.45 0 9.7 3.2 13.3 3.2h3.6c7.17 0 7.17-.25 7.17-1.86 0-3.6-5.58-5.9-12.63-5.9h-6.66c-1.86 0-4.52-3.6-4.52-5.6v-6.16h39.1c1.6 0 3.2-2.28 3.2-4.15v-58.07c.8-1.6-.53-3.2-2.52-3.2zm-6.4 55.4h-78.2V536.3h78.2v45.62z"
              stroke="#000" stroke-opacity="0" fill="#282c33"/>
        <path d="M-450.73 578.33v-48.57c0-5.22 4.25-9.77 9.84-9.77h25.95v-35.73c0-3.6-2.92-6.56-6.52-6.56h-52c-3.6 0-6.53 2.96-6.53 6.57v126.98h47.9V608.97c0-2.27.66-8.16 9.04-11.1h-46.83v-6.56h20.63c-.8-1.33-1.06-2.93-1.06-4.14v-2.27h-19.56v-6.57h19.17zm-19.43-84.3h45.5v9.64h-45.5v-9.63z"
              stroke="#000" stroke-opacity="0" fill="#282c33"/>
        <g>
            <use xlink:href="#u" transform="matrix(1,0,0,1,-510,620.512999958441) translate(74.075 14.4)"/>
        </g>
        <path d="M380 515.33h79.4v42H380z" fill="#fff" fill-opacity="0"/>
        <g>
            <use xlink:href="#e" transform="matrix(1,0,0,1,385,520.3333532512185) translate(0 21.333333333333332)"/>
        </g>
        <path d="M100.15 619h159.7v42h-159.7z" fill="#fff" fill-opacity="0"/>
        <g>
            <use xlink:href="#v" transform="matrix(1,0,0,1,105.14814814814815,624) translate(0 21.333333333333332)"/>
        </g>
        <path d="M129.75 848.88h99.5v42h-99.5z" fill="#fff" fill-opacity="0"/>
        <g>
            <use xlink:href="#w" transform="matrix(1,0,0,1,134.75,853.8829039812647) translate(0 21.333333333333332)"/>
        </g>
        <defs>
            <path fill="#333"
                  d="M185-189c-5-48-123-54-124 2 14 75 158 14 163 119 3 78-121 87-175 55-17-10-28-26-33-46l33-7c5 56 141 63 141-1 0-78-155-14-162-118-5-82 145-84 179-34 5 7 8 16 11 25"
                  id="x"/>
            <path fill="#333"
                  d="M100-194c63 0 86 42 84 106H49c0 40 14 67 53 68 26 1 43-12 49-29l28 8c-11 28-37 45-77 45C44 4 14-33 15-96c1-61 26-98 85-98zm52 81c6-60-76-77-97-28-3 7-6 17-6 28h103"
                  id="y"/>
            <path fill="#333" d="M114-163C36-179 61-72 57 0H25l-1-190h30c1 12-1 29 2 39 6-27 23-49 58-41v29" id="z"/>
            <path fill="#333" d="M108 0H70L1-190h34L89-25l56-165h34" id="A"/>
            <g id="a">
                <use transform="matrix(0.06172839506172839,0,0,0.06172839506172839,0,0)" xlink:href="#x"/>
                <use transform="matrix(0.06172839506172839,0,0,0.06172839506172839,14.814814814814813,0)"
                     xlink:href="#y"/>
                <use transform="matrix(0.06172839506172839,0,0,0.06172839506172839,27.160493827160494,0)"
                     xlink:href="#z"/>
                <use transform="matrix(0.06172839506172839,0,0,0.06172839506172839,34.50617283950617,0)"
                     xlink:href="#A"/>
                <use transform="matrix(0.06172839506172839,0,0,0.06172839506172839,45.61728395061728,0)"
                     xlink:href="#y"/>
                <use transform="matrix(0.06172839506172839,0,0,0.06172839506172839,57.962962962962955,0)"
                     xlink:href="#z"/>
            </g>
            <path fill="#333"
                  d="M158-156l-14 65h45v19h-49L124 0h-19l15-72H56L41 0H22l15-72H2v-19h39l14-65H11v-19h48l15-71h20l-16 71h64l16-71h19l-16 71h37v19h-40zm-83 0L61-91h63l14-65H75"
                  id="B"/>
            <path fill="#333" d="M27 0v-27h64v-190l-56 39v-29l58-41h29v221h61V0H27" id="C"/>
            <g id="b">
                <use transform="matrix(0.06172839506172839,0,0,0.06172839506172839,0,0)" xlink:href="#B"/>
                <use transform="matrix(0.06172839506172839,0,0,0.06172839506172839,12.345679012345679,0)"
                     xlink:href="#C"/>
            </g>
            <path fill="#333" d="M190 0L58-211 59 0H30v-248h39L202-35l-2-213h31V0h-41" id="D"/>
            <g id="c">
                <use transform="matrix(0.06172839506172839,0,0,0.06172839506172839,0,0)" xlink:href="#B"/>
                <use transform="matrix(0.06172839506172839,0,0,0.06172839506172839,12.345679012345679,0)"
                     xlink:href="#D"/>
            </g>
            <path fill="#333"
                  d="M143 4C61 4 22-44 18-125c-5-107 100-154 193-111 17 8 29 25 37 43l-32 9c-13-25-37-40-76-40-61 0-88 39-88 99 0 61 29 100 91 101 35 0 62-11 79-27v-45h-74v-28h105v86C228-13 192 4 143 4"
                  id="E"/>
            <path fill="#333"
                  d="M135-143c-3-34-86-38-87 0 15 53 115 12 119 90S17 21 10-45l28-5c4 36 97 45 98 0-10-56-113-15-118-90-4-57 82-63 122-42 12 7 21 19 24 35"
                  id="F"/>
            <path fill="#333" d="M59-47c-2 24 18 29 38 22v24C64 9 27 4 27-40v-127H5v-23h24l9-43h21v43h35v23H59v120"
                  id="G"/>
            <path fill="#333"
                  d="M100-194c62-1 85 37 85 99 1 63-27 99-86 99S16-35 15-95c0-66 28-99 85-99zM99-20c44 1 53-31 53-75 0-43-8-75-51-75s-53 32-53 75 10 74 51 75"
                  id="H"/>
            <g id="d">
                <use transform="matrix(0.06172839506172839,0,0,0.06172839506172839,0,0)" xlink:href="#E"/>
                <use transform="matrix(0.06172839506172839,0,0,0.06172839506172839,17.28395061728395,0)"
                     xlink:href="#y"/>
                <use transform="matrix(0.06172839506172839,0,0,0.06172839506172839,29.629629629629626,0)"
                     xlink:href="#F"/>
                <use transform="matrix(0.06172839506172839,0,0,0.06172839506172839,40.74074074074073,0)"
                     xlink:href="#G"/>
                <use transform="matrix(0.06172839506172839,0,0,0.06172839506172839,46.913580246913575,0)"
                     xlink:href="#H"/>
                <use transform="matrix(0.06172839506172839,0,0,0.06172839506172839,59.25925925925925,0)"
                     xlink:href="#z"/>
            </g>
            <path fill="#333" d="M186 0v-106H76V0H24v-248h52v99h110v-99h50V0h-50" id="I"/>
            <path fill="#333" d="M136-208V0H84v-208H4v-40h212v40h-80" id="J"/>
            <path fill="#333"
                  d="M24-248c93 1 206-16 204 79-1 75-69 88-152 82V0H24v-248zm52 121c47 0 100 7 100-41 0-47-54-39-100-39v80"
                  id="K"/>
            <g id="e">
                <use transform="matrix(0.07407407407407407,0,0,0.07407407407407407,0,0)" xlink:href="#I"/>
                <use transform="matrix(0.07407407407407407,0,0,0.07407407407407407,19.185185185185183,0)"
                     xlink:href="#J"/>
                <use transform="matrix(0.07407407407407407,0,0,0.07407407407407407,35.407407407407405,0)"
                     xlink:href="#J"/>
                <use transform="matrix(0.07407407407407407,0,0,0.07407407407407407,51.629629629629626,0)"
                     xlink:href="#K"/>
            </g>
            <path fill="#333" d="M127-220V0H93v-220H8v-28h204v28h-85" id="L"/>
            <path fill="#333"
                  d="M141-36C126-15 110 5 73 4 37 3 15-17 15-53c-1-64 63-63 125-63 3-35-9-54-41-54-24 1-41 7-42 31l-33-3c5-37 33-52 76-52 45 0 72 20 72 64v82c-1 20 7 32 28 27v20c-31 9-61-2-59-35zM48-53c0 20 12 33 32 33 41-3 63-29 60-74-43 2-92-5-92 41"
                  id="M"/>
            <path fill="#333"
                  d="M96-169c-40 0-48 33-48 73s9 75 48 75c24 0 41-14 43-38l32 2c-6 37-31 61-74 61-59 0-76-41-82-99-10-93 101-131 147-64 4 7 5 14 7 22l-32 3c-4-21-16-35-41-35"
                  id="N"/>
            <g id="f">
                <use transform="matrix(0.06172839506172839,0,0,0.06172839506172839,0,0)" xlink:href="#L"/>
                <use transform="matrix(0.06172839506172839,0,0,0.06172839506172839,11.049382716049381,0)"
                     xlink:href="#M"/>
                <use transform="matrix(0.06172839506172839,0,0,0.06172839506172839,23.39506172839506,0)"
                     xlink:href="#F"/>
                <use transform="matrix(0.06172839506172839,0,0,0.06172839506172839,34.50617283950617,0)"
                     xlink:href="#N"/>
                <use transform="matrix(0.06172839506172839,0,0,0.06172839506172839,45.61728395061728,0)"
                     xlink:href="#M"/>
            </g>
            <path fill="#333"
                  d="M101-251c82-7 93 87 43 132L82-64C71-53 59-42 53-27h129V0H18c2-99 128-94 128-182 0-28-16-43-45-43s-46 15-49 41l-32-3c6-41 34-60 81-64"
                  id="O"/>
            <g id="g">
                <use transform="matrix(0.06172839506172839,0,0,0.06172839506172839,0,0)" xlink:href="#B"/>
                <use transform="matrix(0.06172839506172839,0,0,0.06172839506172839,12.345679012345679,0)"
                     xlink:href="#O"/>
            </g>
            <path fill="#333"
                  d="M126-127c33 6 58 20 58 59 0 88-139 92-164 29-3-8-5-16-6-25l32-3c6 27 21 44 54 44 32 0 52-15 52-46 0-38-36-46-79-43v-28c39 1 72-4 72-42 0-27-17-43-46-43-28 0-47 15-49 41l-32-3c6-42 35-63 81-64 48-1 79 21 79 65 0 36-21 52-52 59"
                  id="P"/>
            <g id="h">
                <use transform="matrix(0.06172839506172839,0,0,0.06172839506172839,0,0)" xlink:href="#B"/>
                <use transform="matrix(0.06172839506172839,0,0,0.06172839506172839,12.345679012345679,0)"
                     xlink:href="#P"/>
            </g>
            <path fill="#333" d="M155-56V0h-30v-56H8v-25l114-167h33v167h35v25h-35zm-30-156c-27 46-58 90-88 131h88v-131"
                  id="Q"/>
            <g id="i">
                <use transform="matrix(0.06172839506172839,0,0,0.06172839506172839,0,0)" xlink:href="#B"/>
                <use transform="matrix(0.06172839506172839,0,0,0.06172839506172839,12.345679012345679,0)"
                     xlink:href="#Q"/>
            </g>
            <path d="M266 0h-40l-56-210L115 0H75L2-248h35L96-30l15-64 43-154h32l59 218 59-218h35" id="R"/>
            <path d="M100-194c62-1 85 37 85 99 1 63-27 99-86 99S16-35 15-95c0-66 28-99 85-99zM99-20c44 1 53-31 53-75 0-43-8-75-51-75s-53 32-53 75 10 74 51 75"
                  id="S"/>
            <path d="M114-163C36-179 61-72 57 0H25l-1-190h30c1 12-1 29 2 39 6-27 23-49 58-41v29" id="T"/>
            <path d="M143 0L79-87 56-68V0H24v-261h32v163l83-92h37l-77 82L181 0h-38" id="U"/>
            <path d="M100-194c63 0 86 42 84 106H49c0 40 14 67 53 68 26 1 43-12 49-29l28 8c-11 28-37 45-77 45C44 4 14-33 15-96c1-61 26-98 85-98zm52 81c6-60-76-77-97-28-3 7-6 17-6 28h103"
                  id="V"/>
            <g id="j">
                <use transform="matrix(0.05,0,0,0.05,0,0)" xlink:href="#R"/>
                <use transform="matrix(0.05,0,0,0.05,16.599999999999998,0)" xlink:href="#S"/>
                <use transform="matrix(0.05,0,0,0.05,26.599999999999994,0)" xlink:href="#T"/>
                <use transform="matrix(0.05,0,0,0.05,32.55,0)" xlink:href="#U"/>
                <use transform="matrix(0.05,0,0,0.05,41.55,0)" xlink:href="#V"/>
                <use transform="matrix(0.05,0,0,0.05,51.54999999999999,0)" xlink:href="#T"/>
            </g>
            <path d="M135-143c-3-34-86-38-87 0 15 53 115 12 119 90S17 21 10-45l28-5c4 36 97 45 98 0-10-56-113-15-118-90-4-57 82-63 122-42 12 7 21 19 24 35"
                  id="W"/>
            <g id="k">
                <use transform="matrix(0.05,0,0,0.05,0,0)" xlink:href="#R"/>
                <use transform="matrix(0.05,0,0,0.05,16.599999999999998,0)" xlink:href="#S"/>
                <use transform="matrix(0.05,0,0,0.05,26.599999999999994,0)" xlink:href="#T"/>
                <use transform="matrix(0.05,0,0,0.05,32.55,0)" xlink:href="#U"/>
                <use transform="matrix(0.05,0,0,0.05,41.55,0)" xlink:href="#V"/>
                <use transform="matrix(0.05,0,0,0.05,51.54999999999999,0)" xlink:href="#T"/>
                <use transform="matrix(0.05,0,0,0.05,57.5,0)" xlink:href="#W"/>
            </g>
            <path fill="#333"
                  d="M240 0l2-218c-23 76-54 145-80 218h-23L58-218 59 0H30v-248h44l77 211c21-75 51-140 76-211h43V0h-30"
                  id="X"/>
            <path fill="#333" d="M24-231v-30h32v30H24zM24 0v-190h32V0H24" id="Y"/>
            <path fill="#333"
                  d="M117-194c89-4 53 116 60 194h-32v-121c0-31-8-49-39-48C34-167 62-67 57 0H25l-1-190h30c1 10-1 24 2 32 11-22 29-35 61-36"
                  id="Z"/>
            <g id="l">
                <use transform="matrix(0.06172839506172839,0,0,0.06172839506172839,0,0)" xlink:href="#X"/>
                <use transform="matrix(0.06172839506172839,0,0,0.06172839506172839,18.456790123456788,0)"
                     xlink:href="#M"/>
                <use transform="matrix(0.06172839506172839,0,0,0.06172839506172839,30.80246913580247,0)"
                     xlink:href="#Y"/>
                <use transform="matrix(0.06172839506172839,0,0,0.06172839506172839,35.67901234567901,0)"
                     xlink:href="#Z"/>
            </g>
            <path fill="#333"
                  d="M160-131c35 5 61 23 61 61C221 17 115-2 30 0v-248c76 3 177-17 177 60 0 33-19 50-47 57zm-97-11c50-1 110 9 110-42 0-47-63-36-110-37v79zm0 115c55-2 124 14 124-45 0-56-70-42-124-44v89"
                  id="aa"/>
            <g id="m">
                <use transform="matrix(0.06172839506172839,0,0,0.06172839506172839,0,0)" xlink:href="#aa"/>
                <use transform="matrix(0.06172839506172839,0,0,0.06172839506172839,14.814814814814813,0)"
                     xlink:href="#M"/>
                <use transform="matrix(0.06172839506172839,0,0,0.06172839506172839,27.160493827160494,0)"
                     xlink:href="#F"/>
                <use transform="matrix(0.06172839506172839,0,0,0.06172839506172839,38.27160493827161,0)"
                     xlink:href="#y"/>
                <use transform="matrix(0.06172839506172839,0,0,0.06172839506172839,50.617283950617285,0)"
                     xlink:href="#F"/>
            </g>
            <path fill="#333"
                  d="M85-194c31 0 48 13 60 33l-1-100h32l1 261h-30c-2-10 0-23-3-31C134-8 116 4 85 4 32 4 16-35 15-94c0-66 23-100 70-100zm9 24c-40 0-46 34-46 75 0 40 6 74 45 74 42 0 51-32 51-76 0-42-9-74-50-73"
                  id="ab"/>
            <g id="n">
                <use transform="matrix(0.06172839506172839,0,0,0.06172839506172839,0,0)" xlink:href="#ab"/>
                <use transform="matrix(0.06172839506172839,0,0,0.06172839506172839,12.345679012345679,0)"
                     xlink:href="#y"/>
            </g>
            <g id="o">
                <use transform="matrix(0.06172839506172839,0,0,0.06172839506172839,0,0)" xlink:href="#ab"/>
                <use transform="matrix(0.06172839506172839,0,0,0.06172839506172839,12.345679012345679,0)"
                     xlink:href="#M"/>
                <use transform="matrix(0.06172839506172839,0,0,0.06172839506172839,24.691358024691358,0)"
                     xlink:href="#ab"/>
                <use transform="matrix(0.06172839506172839,0,0,0.06172839506172839,37.03703703703704,0)"
                     xlink:href="#y"/>
                <use transform="matrix(0.06172839506172839,0,0,0.06172839506172839,49.382716049382715,0)"
                     xlink:href="#F"/>
            </g>
            <path fill="#333" d="M197 0v-115H63V0H30v-248h33v105h134v-105h34V0h-34" id="ac"/>
            <path fill="#333"
                  d="M30-248c87 1 191-15 191 75 0 78-77 80-158 76V0H30v-248zm33 125c57 0 124 11 124-50 0-59-68-47-124-48v98"
                  id="ad"/>
            <g id="p">
                <use transform="matrix(0.06172839506172839,0,0,0.06172839506172839,0,0)" xlink:href="#ac"/>
                <use transform="matrix(0.06172839506172839,0,0,0.06172839506172839,15.987654320987653,0)"
                     xlink:href="#L"/>
                <use transform="matrix(0.06172839506172839,0,0,0.06172839506172839,29.50617283950617,0)"
                     xlink:href="#L"/>
                <use transform="matrix(0.06172839506172839,0,0,0.06172839506172839,43.02469135802469,0)"
                     xlink:href="#ad"/>
            </g>
            <path fill="#333"
                  d="M233-177c-1 41-23 64-60 70L243 0h-38l-65-103H63V0H30v-248c88 3 205-21 203 71zM63-129c60-2 137 13 137-47 0-61-80-42-137-45v92"
                  id="ae"/>
            <path fill="#333" d="M30 0v-248h187v28H63v79h144v27H63v87h162V0H30" id="af"/>
            <g id="q">
                <use transform="matrix(0.06172839506172839,0,0,0.06172839506172839,0,0)" xlink:href="#ae"/>
                <use transform="matrix(0.06172839506172839,0,0,0.06172839506172839,15.987654320987653,0)"
                     xlink:href="#af"/>
                <use transform="matrix(0.06172839506172839,0,0,0.06172839506172839,30.80246913580247,0)"
                     xlink:href="#x"/>
                <use transform="matrix(0.06172839506172839,0,0,0.06172839506172839,45.61728395061728,0)"
                     xlink:href="#L"/>
            </g>
            <path fill="#333" d="M205 0l-28-72H64L36 0H1l101-248h38L239 0h-34zm-38-99l-47-123c-12 45-31 82-46 123h93"
                  id="ag"/>
            <path fill="#333" d="M33 0v-248h34V0H33" id="ah"/>
            <g id="r">
                <use transform="matrix(0.06172839506172839,0,0,0.06172839506172839,0,0)" xlink:href="#ag"/>
                <use transform="matrix(0.06172839506172839,0,0,0.06172839506172839,14.814814814814813,0)"
                     xlink:href="#ad"/>
                <use transform="matrix(0.06172839506172839,0,0,0.06172839506172839,29.629629629629626,0)"
                     xlink:href="#ah"/>
            </g>
            <path fill="#333"
                  d="M177-190C167-65 218 103 67 71c-23-6-38-20-44-43l32-5c15 47 100 32 89-28v-30C133-14 115 1 83 1 29 1 15-40 15-95c0-56 16-97 71-98 29-1 48 16 59 35 1-10 0-23 2-32h30zM94-22c36 0 50-32 50-73 0-42-14-75-50-75-39 0-46 34-46 75s6 73 46 73"
                  id="ai"/>
            <g id="s">
                <use transform="matrix(0.06172839506172839,0,0,0.06172839506172839,0,0)" xlink:href="#x"/>
                <use transform="matrix(0.06172839506172839,0,0,0.06172839506172839,14.814814814814813,0)"
                     xlink:href="#G"/>
                <use transform="matrix(0.06172839506172839,0,0,0.06172839506172839,20.98765432098765,0)"
                     xlink:href="#H"/>
                <use transform="matrix(0.06172839506172839,0,0,0.06172839506172839,33.33333333333333,0)"
                     xlink:href="#z"/>
                <use transform="matrix(0.06172839506172839,0,0,0.06172839506172839,40.679012345679006,0)"
                     xlink:href="#M"/>
                <use transform="matrix(0.06172839506172839,0,0,0.06172839506172839,53.02469135802468,0)"
                     xlink:href="#ai"/>
                <use transform="matrix(0.06172839506172839,0,0,0.06172839506172839,65.37037037037037,0)"
                     xlink:href="#y"/>
            </g>
            <path fill="#333" d="M30 0v-248h33v221h125V0H30" id="aj"/>
            <g id="t">
                <use transform="matrix(0.06172839506172839,0,0,0.06172839506172839,0,0)" xlink:href="#aj"/>
                <use transform="matrix(0.06172839506172839,0,0,0.06172839506172839,12.345679012345679,0)"
                     xlink:href="#H"/>
                <use transform="matrix(0.06172839506172839,0,0,0.06172839506172839,24.691358024691358,0)"
                     xlink:href="#ai"/>
                <use transform="matrix(0.06172839506172839,0,0,0.06172839506172839,37.03703703703704,0)"
                     xlink:href="#F"/>
            </g>
            <path d="M212-179c-10-28-35-45-73-45-59 0-87 40-87 99 0 60 29 101 89 101 43 0 62-24 78-52l27 14C228-24 195 4 139 4 59 4 22-46 18-125c-6-104 99-153 187-111 19 9 31 26 39 46"
                  id="ak"/>
            <path d="M24 0v-261h32V0H24" id="al"/>
            <path d="M24-231v-30h32v30H24zM24 0v-190h32V0H24" id="am"/>
            <path d="M117-194c89-4 53 116 60 194h-32v-121c0-31-8-49-39-48C34-167 62-67 57 0H25l-1-190h30c1 10-1 24 2 32 11-22 29-35 61-36"
                  id="an"/>
            <path d="M59-47c-2 24 18 29 38 22v24C64 9 27 4 27-40v-127H5v-23h24l9-43h21v43h35v23H59v120" id="ao"/>
            <g id="u">
                <use transform="matrix(0.05,0,0,0.05,0,0)" xlink:href="#ak"/>
                <use transform="matrix(0.05,0,0,0.05,12.950000000000001,0)" xlink:href="#al"/>
                <use transform="matrix(0.05,0,0,0.05,16.900000000000002,0)" xlink:href="#am"/>
                <use transform="matrix(0.05,0,0,0.05,20.85,0)" xlink:href="#V"/>
                <use transform="matrix(0.05,0,0,0.05,30.85,0)" xlink:href="#an"/>
                <use transform="matrix(0.05,0,0,0.05,40.85,0)" xlink:href="#ao"/>
            </g>
            <path fill="#333"
                  d="M110-194c64 0 96 36 96 99 0 64-35 99-97 99-61 0-95-36-95-99 0-62 34-99 96-99zm-1 164c35 0 45-28 45-65 0-40-10-65-43-65-34 0-45 26-45 65 0 36 10 65 43 65"
                  id="ap"/>
            <path fill="#333"
                  d="M137-138c1-29-70-34-71-4 15 46 118 7 119 86 1 83-164 76-172 9l43-7c4 19 20 25 44 25 33 8 57-30 24-41C81-84 22-81 20-136c-2-80 154-74 161-7"
                  id="aq"/>
            <path fill="#333" d="M115-3C79 11 28 4 28-45v-112H4v-33h27l15-45h31v45h36v33H77v99c-1 23 16 31 38 25v30"
                  id="ar"/>
            <path fill="#333"
                  d="M195-6C206 82 75 100 31 46c-4-6-6-13-8-21l49-6c3 16 16 24 34 25 40 0 42-37 40-79-11 22-30 35-61 35-53 0-70-43-70-97 0-56 18-96 73-97 30 0 46 14 59 34l2-30h47zm-90-29c32 0 41-27 41-63 0-35-9-62-40-62-32 0-39 29-40 63 0 36 9 62 39 62"
                  id="as"/>
            <path fill="#333" d="M135-150c-39-12-60 13-60 57V0H25l-1-190h47c2 13-1 29 3 40 6-28 27-53 61-41v41"
                  id="at"/>
            <path fill="#333"
                  d="M185-48c-13 30-37 53-82 52C43 2 14-33 14-96s30-98 90-98c62 0 83 45 84 108H66c0 31 8 55 39 56 18 0 30-7 34-22zm-45-69c5-46-57-63-70-21-2 6-4 13-4 21h74"
                  id="au"/>
            <path fill="#333"
                  d="M169-182c-1-43-94-46-97-3 18 66 151 10 154 114 3 95-165 93-204 36-6-8-10-19-12-30l50-8c3 46 112 56 116 5-17-69-150-10-154-114-4-87 153-88 188-35 5 8 8 18 10 28"
                  id="av"/>
            <path fill="#333"
                  d="M140-251c80 0 125 45 125 126 0 70-33 111-92 124 6 28 34 38 68 31l-1 36C177 83 129 55 120 2 51-6 15-50 15-125c0-81 44-126 125-126zm-1 214c52 0 73-35 73-88 0-50-21-86-72-86-52 0-73 35-73 86s22 88 72 88"
                  id="aw"/>
            <path fill="#333" d="M24 0v-248h52v208h133V0H24" id="ax"/>
            <g id="v">
                <use transform="matrix(0.07407407407407407,0,0,0.07407407407407407,0,0)" xlink:href="#K"/>
                <use transform="matrix(0.07407407407407407,0,0,0.07407407407407407,17.77777777777778,0)"
                     xlink:href="#ap"/>
                <use transform="matrix(0.07407407407407407,0,0,0.07407407407407407,34,0)" xlink:href="#aq"/>
                <use transform="matrix(0.07407407407407407,0,0,0.07407407407407407,48.81481481481481,0)"
                     xlink:href="#ar"/>
                <use transform="matrix(0.07407407407407407,0,0,0.07407407407407407,57.629629629629626,0)"
                     xlink:href="#as"/>
                <use transform="matrix(0.07407407407407407,0,0,0.07407407407407407,73.85185185185185,0)"
                     xlink:href="#at"/>
                <use transform="matrix(0.07407407407407407,0,0,0.07407407407407407,84.22222222222221,0)"
                     xlink:href="#au"/>
                <use transform="matrix(0.07407407407407407,0,0,0.07407407407407407,99.03703703703704,0)"
                     xlink:href="#av"/>
                <use transform="matrix(0.07407407407407407,0,0,0.07407407407407407,116.81481481481481,0)"
                     xlink:href="#aw"/>
                <use transform="matrix(0.07407407407407407,0,0,0.07407407407407407,137.55555555555554,0)"
                     xlink:href="#ax"/>
            </g>
            <path fill="#333" d="M76-208v77h127v40H76V0H24v-248h183v40H76" id="ay"/>
            <path fill="#333" d="M25-224v-37h50v37H25zM25 0v-190h50V0H25" id="az"/>
            <path fill="#333" d="M144 0l-44-69L55 0H2l70-98-66-92h53l41 62 40-62h54l-67 91 71 99h-54" id="aA"/>
            <g id="w">
                <use transform="matrix(0.07407407407407407,0,0,0.07407407407407407,0,0)" xlink:href="#ay"/>
                <use transform="matrix(0.07407407407407407,0,0,0.07407407407407407,16.22222222222222,0)"
                     xlink:href="#az"/>
                <use transform="matrix(0.07407407407407407,0,0,0.07407407407407407,23.629629629629623,0)"
                     xlink:href="#ar"/>
                <use transform="matrix(0.07407407407407407,0,0,0.07407407407407407,32.44444444444444,0)"
                     xlink:href="#aA"/>
                <use transform="matrix(0.07407407407407407,0,0,0.07407407407407407,47.259259259259245,0)"
                     xlink:href="#au"/>
                <use transform="matrix(0.07407407407407407,0,0,0.07407407407407407,62.07407407407406,0)"
                     xlink:href="#at"/>
                <use transform="matrix(0.07407407407407407,0,0,0.07407407407407407,72.44444444444443,0)"
                     xlink:href="#aq"/>
            </g>
        </defs>
    </g>
</svg>